# xmcd CD database file
#
# Track frame offsets:
#	150
#	23222
#	43797
#	74028
#	87756
#	119416
#	136716
#	162543
#	192836
#	207198
#	237468
#	251879
#	278839
#
# Disc length: 4116 seconds
#
# Revision: 0
# Processed by: cddbd v1.5.1PL0 Copyright (c) Steve Scherf et al.
# Submitted via: CDex 1.51
#
DISCID=c210120d
DTITLE=Todays Jazz Classics - Face The Time Challenge In Music, Volume 3
DYEAR=1997
DGENRE=Jazz
TTITLE0=Myriam Alter - Three For Two
TTITLE1=Jose Luis Lopretti, Lilian Vieira - Toda A Gente  Que Passa
TTITLE2=Rick Margitza - Thirteen Bar Blues
TTITLE3=Roy Eldridge - Kidney Stew
TTITLE4=Hein Van de Geyn - Wheeling
TTITLE5=Jasper Van  ' t Hof - Ascot
TTITLE6=Ogden Nash, Kurt Weill - Speak Low
TTITLE7=Duke Ellington - Take The  A Train
TTITLE8=Jimmy McHugh, Dorothy Fields - Blue Again
TTITLE9=Eric Vloeimans - Elephant Walk
TTITLE10=Traditional Cuba - Los Aretes De La Luna
TTITLE11=Rodgers, Hart - You Took Advantage Of Me
TTITLE12=Dick de Graaf - Grand Slam
EXTD=YEAR: 1997
EXTT0=
EXTT1=
EXTT2=
EXTT3=
EXTT4=
EXTT5=
EXTT6=
EXTT7=
EXTT8=
EXTT9=
EXTT10=
EXTT11=
EXTT12=
PLAYORDER=
